<svg id="Layer_1" enable-background="new 0 0 479.998 479.998" height="512" viewBox="0 0 479.998 479.998" width="512" xmlns="http://www.w3.org/2000/svg"><path d="m401.999 424.741v47.257c0 4.418-3.582 8-8 8s-8-3.582-8-8v-47.257c0-36.794-29.775-66.572-66.573-66.571-17.41 0-33.208-8.87-42.258-23.728-2.299-3.773-1.104-8.695 2.67-10.994 3.772-2.301 8.695-1.103 10.994 2.67 6.123 10.051 16.812 16.051 28.594 16.051 45.637 0 82.573 36.93 82.573 82.572zm-111.612-58.26c2.846 3.38 2.412 8.427-.968 11.272-36.841 31.013-92.818 20.862-116.34-21.177-4.034 1.045-8.227 1.593-12.505 1.593-36.878 0-66.574 29.849-66.574 66.571v47.257c0 4.418-3.582 8-8 8s-8-3.582-8-8v-47.257c0-45.634 36.929-82.571 82.571-82.571 18.452 0 33.429-14.863 33.429-33.341v-2.107c-34.919-16.697-59.429-51.783-60.923-92.643-14.37-3.455-25.077-16.317-25.077-31.62v-121.807c0-19.084 14.217-34.911 32.615-37.447 13.974-25.319 47.844-30.959 69.385-11.736 17.116-15.273 42.861-15.295 60 0 21.579-19.257 55.435-13.54 69.384 11.736 18.398 2.536 32.616 18.363 32.616 37.447v121.807c0 4.418-3.582 8-8 8s-8-3.582-8-8v-121.807c0-12.021-9.78-21.801-21.802-21.801-3.236 0-6.153-1.949-7.392-4.939-8.659-20.913-36.768-24.206-50.138-6.141-3.142 4.732-10.089 4.762-13.28.078-5.456-7.425-14.183-11.851-23.389-11.851-15.947 0-23.328 11.986-24.322 12.987-3.502 3.522-9.336 3.031-12.204-1.02-13.275-18.255-41.576-15.075-50.28 5.946-1.238 2.99-4.155 4.939-7.392 4.939-12.021 0-21.802 9.78-21.802 21.801v121.807c0 6.348 3.656 11.865 9 14.636v-51.863c0-30.878 25.121-56 56-56h102c30.879 0 56 25.12 56 55.997v65.503c0 69.57-67.985 122.42-137.169 102.053-1.21 15.34-9.426 28.918-22.057 37.259 19.064 32.203 62.557 39.702 91.342 15.47 3.378-2.843 8.426-2.411 11.272.969zm-50.388-65.358c50.178 0 91-40.822 91-91v-64.895c0-22.055-17.944-39.997-40-39.997h-102c-22.056 0-40 17.944-40 40v64.891c0 50.179 40.822 91.001 91 91.001z"/></svg>