<svg id="Layer_1" data-name="Layer 1" xmlns="http://www.w3.org/2000/svg" viewBox="0 0 348.34 349.79"><title>laliga-1</title><circle cx="171.1" cy="176.68" r="55.75" style="fill:#fff"/><path d="M164.58,3A42,42,0,0,1,179.41.94c4.35,22.9,8.54,45.81,12.83,68.72.38,1.63.66,4.22-1.75,4.16a80.85,80.85,0,0,0-52.36,34.34c-1.5,2.13-2.54,4.65-4.49,6.44-2.45-.5-4.49-2.07-6.64-3.26q-24.89-14.52-49.82-29c-2.51-1.49-5.17-2.74-7.41-4.63a5,5,0,0,1,.9-3A155.55,155.55,0,0,1,164.58,3Z" transform="translate(-20.9 -0.88)" style="fill:#7c227c"/><path d="M196.47,19.31C241,12,288.4,25.87,322.22,55.72a2,2,0,0,1,.14,3.33c-14.86,17.33-29.9,34.51-44.79,51.82-1.11,1.49-3.22,3.19-4.72,1.14a80.46,80.46,0,0,0-52.43-19.65c-5-.17-10,.92-15,.85-3.59-23.39-6.94-46.83-10.44-70.23-.32-1.35-.38-3.65,1.54-3.67Z" transform="translate(-20.9 -0.88)" style="fill:#c32b26"/><path d="M44.32,78.15c1.37-.15,2.55.87,3.75,1.37,19.86,10.75,39.81,21.31,59.65,32.07,1.91.58,1.93,2.63.89,4a80.12,80.12,0,0,0-5.33,63,29,29,0,0,1,1.75,5.9c-.49,1.39-2.16,1.55-3.28,2.17-21,8-41.89,16.12-62.84,24.18-1.28.39-3.31,1.31-3.76-.61-16.92-41.53-13.83-90.41,7.31-129.88A5.75,5.75,0,0,1,44.32,78.15Z" transform="translate(-20.9 -0.88)" style="fill:#3c5399"/><path d="M317.21,82.73c1.09-1.23,2.64-.63,3.53.48,32.81,30.75,51.09,76.39,48.2,121.28.17,2.15-2.48,1.66-3.81,1.72-22.94-1.18-45.91-2.18-68.85-3.39-2.33.15-2-2.74-2-4.29a79.42,79.42,0,0,0-7.17-35.91c-4.52-10.32-11.73-19.13-19.7-27,1.33-1.66,2.65-3.31,4.11-4.84C286.8,114.82,301.89,98.65,317.21,82.73Z" transform="translate(-20.9 -0.88)" style="fill:#d57c2c"/><path d="M181,120.31a58.51,58.51,0,1,1-45.77,43.28c5.21-21.67,23.83-39.31,45.77-43.28m-32.82,26.51c2-1,4-2,6-3-2.42,5.78-4,12.05-3.43,18.36,5.06,2.42,10.39,4.3,15.16,7.25-5.5-.88-10.92-2.19-16.38-3.24-4.19,4.85-6.6,10.83-8.29,16.93-1.09-2.11-2.16-4.25-3.1-6.44a57.24,57.24,0,0,0,11.06,33.67c-.51-2.33-1-4.68-1.41-7,4.86,4.08,10.34,7.65,16.65,8.93,3.77-4.09,7.26-8.46,11.4-12.2-2.32,5.06-5.33,9.74-8,14.61,3.15,5.65,8.26,9.75,13.65,13.14-2.31.34-4.63.65-6.94,1,5.85,1.51,11.84,2.87,17.93,2.75,5.78,0,11.46-1.34,17-2.73l-6.9-1c5.36-3.41,10.44-7.5,13.62-13.12-2.65-4.88-5.7-9.57-8-14.62,4.15,3.73,7.64,8.11,11.42,12.19,6.31-1.31,11.77-4.87,16.64-8.94-.45,2.31-.89,4.63-1.37,6.94a57.82,57.82,0,0,0,11-33.47c-1,2.06-2,4.16-3,6.24-1.91-6-4.12-12-8.36-16.84-5.49,1.07-10.93,2.39-16.45,3.25,4.82-2.91,10.15-4.85,15.23-7.25.54-6.32-1-12.6-3.45-18.38,2,1,4,2,6,3-6.81-9.8-17.07-16.68-28.24-20.59,1.76,1.69,3.43,3.48,5.13,5.25-6.28-.57-12.73-.15-18.56,2.43-.79,5.62-1.09,11.3-2.18,16.88-.85-5.59-1.32-11.22-2-16.83-5.83-2.65-12.32-3.05-18.62-2.48a43.16,43.16,0,0,1,5.86-5.53c-11.45,3.94-22.05,10.84-29,20.9Z" transform="translate(-20.9 -0.88)" style="fill:#010000"/><path d="M168.33,169.89c8-5.61,15.77-11.51,23.76-17.13,7.85,5.88,15.94,11.43,23.73,17.4-3,9.28-6.11,18.53-9,27.85-9.84.1-19.68.05-29.53,0C174.4,188.62,171,179.36,168.33,169.89Z" transform="translate(-20.9 -0.88)" style="fill:#020001"/><path d="M81.82,204.47a35.88,35.88,0,0,1,7-2.54c1.85,2.17,2.8,4.92,4.11,7.42,10,19.68,28.67,34.25,49.76,40.35-.44,2.09-.88,4.2-1.47,6.25-5.79,18.27-11.43,36.58-17.14,54.87a70.16,70.16,0,0,1-3,9.08c-1,1.43-2.69.42-4,.17-42.85-13.39-79.09-46.44-96.08-88v-.9C41,221.8,61.57,213.49,81.82,204.47Z" transform="translate(-20.9 -0.88)" style="fill:#5b82bd"/><path d="M272.44,211.54c1.48-.75,3.17-.34,4.76-.31,23,1.93,46.06,3.46,69.07,5.49.12,1.2.19,2.42.22,3.65-3.29,44.44-27.19,86.84-63.38,112.83-1.6,1.57-3.26-.34-4.14-1.63-13.45-18.51-27.11-36.88-40.52-55.41-1.65-1.63.14-3.29,1.48-4.22a80,80,0,0,0,31-50.33c.65-3.34.48-6.82,1.53-10.07Z" transform="translate(-20.9 -0.88)" style="fill:#f8e437"/><path d="M215.59,261.65c1.3-.89,2.2.87,2.9,1.67,12.59,18.65,25.07,37.39,37.65,56.05a21.43,21.43,0,0,1,1.58,2.76c.06,1.5-1.49,2.15-2.46,3a155.73,155.73,0,0,1-64.9,24.43,38.15,38.15,0,0,1-11.87.6c-8,.07-16-.38-24,.54-9.23-1.88-18.76-2.67-27.71-5.8-1.64-.45-.79-2.53-.6-3.69,6.11-21.9,12.08-43.85,18.18-65.76,0-2.28,2.31-3.06,4.15-2.15a80,80,0,0,0,45-.93c7.91-2.32,15.08-6.45,22.08-10.68Z" transform="translate(-20.9 -0.88)" style="fill:#61a244"/></svg>