<svg id="Layer_1" data-name="Layer 1" xmlns="http://www.w3.org/2000/svg" viewBox="0 0 65.66 18.36"><defs><style>.cls-1,.cls-2{fill:#dd4b00;}.cls-2{font-size:12px;font-family:SnapITC-Regular, Snap ITC;}.cls-3{letter-spacing:0.04em;}.cls-4{letter-spacing:-0.04em;}.cls-5{fill:#dcdcdc;}</style></defs><title>logo svg</title><path class="cls-1" d="M98.24,128.83a4.36,4.36,0,0,1-4.33,3.25,6.26,6.26,0,0,1-2.7-.68,7,7,0,0,1-2.35-1.8,4,4,0,0,1-1-2.52c0-.59.45-1.17,1.36-1.75a9.75,9.75,0,0,1,2.15-1,8,8,0,0,0,1.59-.68,2.64,2.64,0,0,0,1.14-1.28,8.09,8.09,0,0,1-1.29.78,3.58,3.58,0,0,1-1.47.3,7.78,7.78,0,0,1-2-.39,7.78,7.78,0,0,0-2-.39.68.68,0,0,0-.68.43l-.36-.23a1.8,1.8,0,0,1,.79-1,2.27,2.27,0,0,1,1.27-.36,10.57,10.57,0,0,1,2.28.29l1.26.29a6,6,0,0,0,1.28.16,1.6,1.6,0,0,0,1.09-.4l.39.2a2.82,2.82,0,0,1-.76,1.8q-.16.2-1.44,1.41c-.72.68-1.12,1.08-1.22,1.21a2.6,2.6,0,0,0-.55,1.62,2.78,2.78,0,0,0,1.51,2.34,5.08,5.08,0,0,0,2.77.85,2.51,2.51,0,0,0,1.89-1,6.53,6.53,0,0,0,1.1-1.94Z" transform="translate(-61 -115.65)"/><text x="-61" y="-115.65"></text><text class="cls-2" transform="translate(7.25 15.1)"><tspan class="cls-3">L</tspan><tspan x="9.15" y="0">A</tspan></text><text class="cls-2" transform="translate(36 13.85)">S<tspan class="cls-4" x="9.9" y="0">L</tspan><tspan x="18.06" y="0">Y</tspan></text><path class="cls-5" d="M90.8,117.76" transform="translate(-61 -115.65)"/><path class="cls-5" d="M95,120.36a3.1,3.1,0,0,0,.4-1.2h0c0-.12,0-.24,0-.36a3.13,3.13,0,0,0-.82-2.12l0,0a3.13,3.13,0,0,0-1.21-.8h0a3.31,3.31,0,0,0-1.05-.18,3,3,0,0,0-1.16.23h0a3,3,0,0,0-1.15.81l0,0a3.12,3.12,0,0,0-.77,2.06c0,.12,0,.23,0,.35h0a3.75,3.75,0,0,0,.13.6l-1.68,1.69a.16.16,0,0,0,0,.22.16.16,0,0,0,.11,0,.21.21,0,0,0,.12,0l1.58-1.58c0,.1.09.19.14.29s0,0,0,0a3.2,3.2,0,0,0,1.8,1.4l-1.13,1.13a.15.15,0,0,0,0,.23.17.17,0,0,0,.22,0l1.27-1.27a3.27,3.27,0,0,0,.54,0,3.13,3.13,0,0,0,2.69-1.53Zm-1.39,0-.57-.88.3-.94.73-.16.18,0,.82.84a2.79,2.79,0,0,1-.32,1Zm-2.08-.88-.57.88-1.14-.22a2.92,2.92,0,0,1-.32-1l.82-.83.91.2.2.63Zm-1.58-2.27.15.9-.63.63A2.86,2.86,0,0,1,89.9,117.22Zm1.88,2.13-.29-.87.74-.54.75.54-.29.87Zm3.27-.59-.63-.64.11-1A2.73,2.73,0,0,1,95.05,118.76Zm-.8-1.94L94.11,118l-.35.08-.55.13-.81-.59v-.87l.87-.62A2.85,2.85,0,0,1,94.25,116.82Zm-1.36-.77-.66.47-.73-.45a2.94,2.94,0,0,1,.74-.1A2.82,2.82,0,0,1,92.89,116.05Zm-1.78.16,1,.59v.86l-.56.41-.24.18-.91-.21-.19-1.16A2.84,2.84,0,0,1,91.11,116.21ZM90,120.52l.87.17.44.76A2.85,2.85,0,0,1,90,120.52Zm1.74,1-.58-1,.57-.88h1l.57.88-.59,1a2.42,2.42,0,0,1-.47,0A2.59,2.59,0,0,1,91.76,121.56Zm1.39-.11.44-.76.86-.16A2.82,2.82,0,0,1,93.15,121.45Z" transform="translate(-61 -115.65)"/><path class="cls-5" d="M89.29,121.59l-2.16,2.16a.17.17,0,0,0,0,.23.19.19,0,0,0,.12,0,.15.15,0,0,0,.11,0l2.16-2.16a.16.16,0,0,0-.23-.23Z" transform="translate(-61 -115.65)"/><path class="cls-5" d="M89.73,123.39a.14.14,0,0,0-.11,0,.15.15,0,0,0,0,.22.14.14,0,0,0,.11,0,.16.16,0,0,0,0-.32Z" transform="translate(-61 -115.65)"/></svg>