<svg id="bold" xmlns="http://www.w3.org/2000/svg" viewBox="0 0 512 512"><title>single_contrastArtboard 1</title><path d="M282.67,490.67H229.33A26.7,26.7,0,0,1,202.67,464V373.33h-48a16,16,0,0,1-11.61-27L244.39,239.64c6-6.36,17.18-6.36,23.22,0L368.94,346.3a16,16,0,0,1-11.61,27h-48V464a26.7,26.7,0,0,1-26.66,26.67Z" style="fill:#dd4b0f"/><path d="M398.36,105.11C370.37,53.93,315.5,21.33,256,21.33c-75.63,0-141.23,52.59-157.8,124.36C43.07,151.49,0,197.78,0,253.87,0,309.23,42.15,354.56,96.26,361.3A58.52,58.52,0,0,1,112.11,317L213.46,210.28c21.83-22.95,63.28-22.95,85.06,0L399.87,317a58.51,58.51,0,0,1,16,41C471.19,342.83,512,292.71,512,233.24c0-65.41-49.22-120-113.64-128.13Z" style="fill:#dd4b00"/></svg>